<svg id="Capa_1" enable-background="new 0 0 512.132 512.132" height="512" viewBox="0 0 512.132 512.132" width="512" xmlns="http://www.w3.org/2000/svg"><g><g><path d="m285.84 328.357h-60.197c-19.743 0-35.806 16.063-35.806 35.806v112.164c0 19.743 16.063 35.806 35.806 35.806h60.197c19.743 0 35.806-16.063 35.806-35.806v-112.164c-.001-19.743-16.063-35.806-35.806-35.806z" fill="#d9f2ff"/></g><path d="m255.741 122.305c-73.9 0-134.023 62.033-134.023 138.281 0 43.362 19.604 83.904 52.817 110.016v26.007c0 27.607 21.916 50.066 48.855 50.066h17.351 30 17.35c26.939 0 48.855-22.459 48.855-50.066v-26.007c33.213-26.112 52.817-66.654 52.817-110.016.001-76.249-60.122-138.281-134.022-138.281z" fill="#fed843"/><path d="m255.741 122.305c-73.9 0-134.023 62.033-134.023 138.281 0 43.362 19.604 83.904 52.817 110.016v26.007c0 27.607 21.916 50.066 48.855 50.066h17.351l15-20 15 20h17.35c26.939 0 48.855-22.459 48.855-50.066v-26.007c33.213-26.112 52.817-66.654 52.817-110.016.001-76.249-60.122-138.281-134.022-138.281z" fill="#fed843"/><path d="m119.471 139.828c-3.839 0-7.678-1.464-10.606-4.394l-34.992-34.992c-5.858-5.858-5.858-15.355 0-21.213 5.857-5.858 15.355-5.858 21.213 0l34.992 34.992c5.858 5.858 5.858 15.355 0 21.213-2.929 2.929-6.768 4.394-10.607 4.394z" fill="#f69"/><path d="m390.059 137.227c-3.839 0-7.678-1.464-10.606-4.394-5.858-5.857-5.858-15.355 0-21.213l34.992-34.993c5.857-5.858 15.355-5.858 21.213 0 5.858 5.857 5.858 15.355 0 21.213l-34.992 34.993c-2.929 2.929-6.768 4.394-10.607 4.394z" fill="#e62e6b"/><path d="m64.732 281.661h-49.487c-8.284 0-15-6.716-15-15s6.716-15 15-15h49.487c8.284 0 15 6.716 15 15s-6.716 15-15 15z" fill="#f69"/><path d="m285.84 328.357h-15.098l-15 118.318v65.457h30.099c19.743 0 35.806-16.063 35.806-35.806v-112.163c-.002-19.743-16.064-35.806-35.807-35.806z" fill="#c4e1ff"/><path d="m496.887 277.981h-49.486c-8.284 0-15-6.716-15-15s6.716-15 15-15h49.486c8.284 0 15 6.716 15 15s-6.715 15-15 15z" fill="#e62e6b"/><g><path d="m291.65 232.867c-8.284 0-15 6.716-15 15 0 11.529-9.38 20.909-20.909 20.909s-20.909-9.379-20.909-20.909c0-8.284-6.716-15-15-15s-15 6.716-15 15c0 22.852 15.136 42.233 35.909 48.651v150.158h30v-150.158c20.773-6.418 35.909-25.799 35.909-48.651 0-8.284-6.716-15-15-15z" fill="#ff8856"/></g><g><path d="m291.65 232.867c-8.284 0-15 6.716-15 15 0 11.529-9.38 20.909-20.909 20.909s-20.909-9.379-20.909-20.909c0-8.284-6.716-15-15-15s-15 6.716-15 15c0 22.852 15.136 42.233 35.909 48.651v150.158h30v-150.158c20.773-6.418 35.909-25.799 35.909-48.651 0-8.284-6.716-15-15-15z" fill="#f69"/></g><g><path d="m255.741 79.486c-8.284 0-15-6.716-15-15v-49.486c0-8.284 6.716-15 15-15s15 6.716 15 15v49.486c0 8.285-6.716 15-15 15z" fill="#f69"/><path d="m256.495.038v79.41c7.932-.395 14.246-6.932 14.246-14.962v-49.486c0-8.03-6.314-14.567-14.246-14.962z" fill="#e62e6b"/></g><path d="m270.741 446.675h17.35c26.939 0 48.855-22.459 48.855-50.066v-26.007c33.213-26.112 52.817-66.654 52.817-110.016 0-76.249-60.123-138.281-134.023-138.281v146.47z" fill="#fabe2c"/><path d="m270.741 446.675v-150.158c20.773-6.418 35.909-25.799 35.909-48.651 0-8.284-6.716-15-15-15s-15 6.716-15 15c0 11.529-9.38 20.909-20.909 20.909v177.9z" fill="#e62e6b"/></g></svg>