<?xml version="1.0" encoding="UTF-8"?>
<svg xmlns="http://www.w3.org/2000/svg" id="Layer_3" data-name="Layer 3" viewBox="0 0 64 64" width="512" height="512"><path d="M62,42a9,9,0,0,0-9-9c-.02,0-.039,0-.058,0a8.992,8.992,0,0,0-12.553-7.244,8.99,8.99,0,0,0-16.778,0A8.992,8.992,0,0,0,11.058,33c-.019,0-.038,0-.058,0A9,9,0,0,0,9.036,50.779c-.02.238-.036.477-.036.721a8.495,8.495,0,0,0,14.956,5.52,8.987,8.987,0,0,0,16.088,0A8.495,8.495,0,0,0,55,51.5c0-.244-.016-.483-.036-.721A9,9,0,0,0,62,42Z" style="fill:#f29b99"/><path d="M46,16a14,14,0,1,0-25.312,8.24A16.313,16.313,0,0,1,24,33.839V34H40v-.164a16.09,16.09,0,0,1,3.271-9.54A13.915,13.915,0,0,0,46,16Z" style="fill:#f9d266"/><path d="M24,34v2a2,2,0,0,0,2,2H38a2,2,0,0,0,2-2V34" style="fill:#d5883e"/><path d="M28,38h0a4,4,0,0,0,4,4h0a4,4,0,0,0,4-4h0" style="fill:#fce797"/><path d="M43,16H41a9.011,9.011,0,0,0-9-9V5A11.013,11.013,0,0,1,43,16Z" style="fill:#fce797"/><polygon points="35 10 28 22 32 22 30 30 38 18 34 18 35 10" style="fill:#f0ae42"/><path d="M54,25c-.021,0-.041,0-.062,0a1,1,0,0,1-.918-.8l-1.493-7.464-1.67,2.783A1,1,0,0,1,49,20H41V18h7.434l2.709-4.515a1,1,0,0,1,1.837.319l1.262,6.307,1.809-5.427A1,1,0,0,1,56.929,14a1.016,1.016,0,0,1,.966.551L59.618,18H62v2H59a1,1,0,0,1-.9-.553l-.92-1.841-2.236,6.71A1,1,0,0,1,54,25Z" style="fill:#d23f34"/><path d="M10,25a1,1,0,0,1-.949-.684l-2.236-6.71L5.9,19.447A1,1,0,0,1,5,20H2V18H4.382l1.723-3.447A1.02,1.02,0,0,1,7.071,14a1,1,0,0,1,.878.682l1.809,5.427L11.02,13.8a1,1,0,0,1,1.837-.319L15.566,18H23v2H15a1,1,0,0,1-.857-.485l-1.67-2.783L10.98,24.2a1,1,0,0,1-.918.8C10.041,25,10.021,25,10,25Z" style="fill:#d23f34"/><path d="M38,34H24v2H36a2,2,0,0,0,2-2Z" style="fill:#f3a748"/><path d="M53.805,32.039a9.975,9.975,0,0,0-9.145-8.01A14.792,14.792,0,0,0,46.45,20H49a1,1,0,0,0,.857-.485l1.67-2.783L53.02,24.2a1,1,0,0,0,.918.8c.021,0,.041,0,.062,0a1,1,0,0,0,.949-.684l2.236-6.71.92,1.841A1,1,0,0,0,59,20h3V18H59.618L57.9,14.553A1.016,1.016,0,0,0,56.929,14a1,1,0,0,0-.878.682l-1.809,5.427L52.98,13.8a1,1,0,0,0-1.837-.319L48.434,18H46.858A15.259,15.259,0,0,0,47,16,15,15,0,0,0,31.24,1.019,14.91,14.91,0,0,0,17.152,18H15.566l-2.709-4.515a1,1,0,0,0-1.837.319L9.758,20.111,7.949,14.684A1,1,0,0,0,7.071,14a1.02,1.02,0,0,0-.966.551L4.382,18H2v2H5a1,1,0,0,0,.895-.553l.92-1.841,2.236,6.71A1,1,0,0,0,10,25c.021,0,.041,0,.062,0a1,1,0,0,0,.918-.8l1.493-7.464,1.67,2.783A1,1,0,0,0,15,20h2.547a14.928,14.928,0,0,0,1.8,4.029,9.974,9.974,0,0,0-9.152,8A10,10,0,0,0,8,51.535a9.494,9.494,0,0,0,15.753,7.11,9.986,9.986,0,0,0,16.494,0A9.494,9.494,0,0,0,56,51.535a9.993,9.993,0,0,0-2.2-19.5ZM19.169,18a13.157,13.157,0,0,1-.12-3.145A13.013,13.013,0,0,1,31.339,3.017,13,13,0,0,1,45,16a13.138,13.138,0,0,1-.155,2H41v2h3.371a12.908,12.908,0,0,1-1.9,3.7A17.141,17.141,0,0,0,39.022,33H24.977A17.466,17.466,0,0,0,21.5,23.65,12.892,12.892,0,0,1,19.647,20H23V18ZM26,37a1,1,0,0,1-1-1V35H39v1a1,1,0,0,1-1,1Zm8.816,2a2.982,2.982,0,0,1-5.632,0Zm19.93,10.8a1,1,0,0,0-.36.166A8.005,8.005,0,0,1,47,42H45a10.014,10.014,0,0,0,8.977,9.948A7.488,7.488,0,0,1,40.8,56.37a1,1,0,0,0-1.654.2,7.972,7.972,0,0,1-14.142.268A7,7,0,0,1,32,50V48a9,9,0,0,0-8.977,8.552A7.486,7.486,0,0,1,10,51.5c0-.215.016-.427.033-.638A1,1,0,0,0,9.254,49.8a8,8,0,0,1,1.7-15.8c.016,0,.031-.007.047-.006V34a8.009,8.009,0,0,1,8,8h2a10.009,10.009,0,0,0-8.758-9.915A7.977,7.977,0,0,1,20,26c.23,0,.461.029.692.049A14.915,14.915,0,0,1,23,33.839V36a3,3,0,0,0,3,3h1.1a5,5,0,0,0,9.8,0H38a3,3,0,0,0,3-3V33.835a14.758,14.758,0,0,1,2.294-7.784C43.53,26.03,43.765,26,44,26a7.985,7.985,0,0,1,7.948,7.113A1.056,1.056,0,0,0,53,34a8,8,0,0,1,1.746,15.8Z"/><path d="M41,16h2A11.013,11.013,0,0,0,32,5V7A9.011,9.011,0,0,1,41,16Z"/><path d="M28,23h2.719L29.03,29.757a1,1,0,0,0,.565,1.158A1.015,1.015,0,0,0,30,31a1,1,0,0,0,.832-.445l8-12A1,1,0,0,0,38,17H35.133l.859-6.876A1,1,0,0,0,34.136,9.5l-7,12A1,1,0,0,0,28,23Zm5.4-8.275-.394,3.151A1,1,0,0,0,34,19h2.131L32.37,24.642l.6-2.4A1,1,0,0,0,32,21H29.741Z"/></svg>
